STARTFONT 2.1
FONT -Monotype-Bookman Old Style-Bold-R-Normal--12-120-75-75-P-67-iso8859-2
SIZE 12 75 75
FONTBOUNDINGBOX 19 16 -2 -3

STARTPROPERTIES 22
FOUNDRY "Monotype"
FAMILY_NAME "Bookman Old Style"
WEIGHT_NAME "Bold"
SLANT "R"
SETWIDTH_NAME "Normal"
ADD_STYLE_NAME ""
PIXEL_SIZE 12
POINT_SIZE 120
RESOLUTION_X 75
RESOLUTION_Y 75
SPACING "P"
AVERAGE_WIDTH 67
CHARSET_REGISTRY "iso8859"
CHARSET_ENCODING "2"
COPYRIGHT "Copyright (c) 1996 Monotype Typography Ltd."
CAP_HEIGHT 10
X_HEIGHT 7
WEIGHT 10
QUAD_WIDTH 8
DEFAULT_CHAR 160
FONT_DESCENT 3
FONT_ASCENT 13
ENDPROPERTIES

CHARS 191

STARTCHAR space
ENCODING 32
SWIDTH 340 0
DWIDTH 4 0
BBX 0 0 0 0
BITMAP
ENDCHAR

STARTCHAR exclam
ENCODING 33
SWIDTH 360 0
DWIDTH 5 0
BBX 2 9 2 0
BITMAP
C0
C0
C0
C0
C0
C0
00
C0
C0
ENDCHAR

STARTCHAR quotedbl
ENCODING 34
SWIDTH 420 0
DWIDTH 5 0
BBX 3 3 1 6
BITMAP
A0
A0
A0
ENDCHAR

STARTCHAR numbersign
ENCODING 35
SWIDTH 600 0
DWIDTH 8 0
BBX 6 9 1 0
BITMAP
28
28
28
FC
50
FC
50
50
50
ENDCHAR

STARTCHAR dollar
ENCODING 36
SWIDTH 660 0
DWIDTH 9 0
BBX 7 12 1 -2
BITMAP
10
7C
EE
C6
F0
7C
1E
C6
EE
7C
10
10
ENDCHAR

STARTCHAR percent
ENCODING 37
SWIDTH 940 0
DWIDTH 12 0
BBX 11 9 1 0
BITMAP
6080
9100
9100
9200
64C0
0520
0920
1120
10C0
ENDCHAR

STARTCHAR ampersand
ENCODING 38
SWIDTH 800 0
DWIDTH 10 0
BBX 10 9 0 0
BITMAP
3800
6C00
6C00
3B80
6D00
CF00
C740
EEC0
7B80
ENDCHAR

STARTCHAR quoteright
ENCODING 39
SWIDTH 320 0
DWIDTH 4 0
BBX 2 4 1 5
BITMAP
C0
C0
40
80
ENDCHAR

STARTCHAR parenleft
ENCODING 40
SWIDTH 320 0
DWIDTH 4 0
BBX 3 12 1 -3
BITMAP
20
60
40
C0
C0
C0
C0
C0
C0
40
60
20
ENDCHAR

STARTCHAR parenright
ENCODING 41
SWIDTH 320 0
DWIDTH 4 0
BBX 3 12 1 -3
BITMAP
80
C0
40
60
60
60
60
60
60
40
C0
80
ENDCHAR

STARTCHAR asterisk
ENCODING 42
SWIDTH 460 0
DWIDTH 6 0
BBX 5 5 1 4
BITMAP
20
20
F8
50
50
ENDCHAR

STARTCHAR plus
ENCODING 43
SWIDTH 600 0
DWIDTH 8 0
BBX 7 7 1 1
BITMAP
10
10
10
FE
10
10
10
ENDCHAR

STARTCHAR comma
ENCODING 44
SWIDTH 340 0
DWIDTH 4 0
BBX 2 4 1 -2
BITMAP
C0
C0
40
80
ENDCHAR

STARTCHAR minus
ENCODING 45
SWIDTH 600 0
DWIDTH 8 0
BBX 6 1 1 4
BITMAP
FC
ENDCHAR

STARTCHAR period
ENCODING 46
SWIDTH 340 0
DWIDTH 4 0
BBX 2 2 1 0
BITMAP
C0
C0
ENDCHAR

STARTCHAR slash
ENCODING 47
SWIDTH 600 0
DWIDTH 8 0
BBX 5 12 2 -3
BITMAP
08
18
18
10
30
30
20
60
60
40
C0
C0
ENDCHAR

STARTCHAR zero
ENCODING 48
SWIDTH 660 0
DWIDTH 9 0
BBX 8 9 1 0
BITMAP
3C
66
C3
C3
C3
C3
C3
66
3C
ENDCHAR

STARTCHAR one
ENCODING 49
SWIDTH 660 0
DWIDTH 9 0
BBX 6 9 2 0
BITMAP
30
F0
30
30
30
30
30
30
FC
ENDCHAR

STARTCHAR two
ENCODING 50
SWIDTH 660 0
DWIDTH 9 0
BBX 7 9 1 0
BITMAP
7C
CE
86
06
0C
18
32
66
FC
ENDCHAR

STARTCHAR three
ENCODING 51
SWIDTH 660 0
DWIDTH 9 0
BBX 7 9 1 0
BITMAP
7C
CE
86
06
1C
06
86
CE
7C
ENDCHAR

STARTCHAR four
ENCODING 52
SWIDTH 660 0
DWIDTH 9 0
BBX 8 9 1 0
BITMAP
0C
1C
3C
2C
6C
CC
FF
0C
0C
ENDCHAR

STARTCHAR five
ENCODING 53
SWIDTH 660 0
DWIDTH 9 0
BBX 7 9 1 0
BITMAP
FC
FC
C0
FC
8E
06
86
CE
7C
ENDCHAR

STARTCHAR six
ENCODING 54
SWIDTH 660 0
DWIDTH 9 0
BBX 7 9 1 0
BITMAP
0C
38
60
7C
EE
C6
C6
EE
7C
ENDCHAR

STARTCHAR seven
ENCODING 55
SWIDTH 660 0
DWIDTH 9 0
BBX 7 9 1 0
BITMAP
7E
FE
8C
18
18
30
30
30
30
ENDCHAR

STARTCHAR eight
ENCODING 56
SWIDTH 660 0
DWIDTH 9 0
BBX 7 9 1 0
BITMAP
7C
C6
C6
FE
7C
CE
C6
EE
7C
ENDCHAR

STARTCHAR nine
ENCODING 57
SWIDTH 660 0
DWIDTH 9 0
BBX 7 9 1 0
BITMAP
7C
EE
C6
C6
EE
7C
0C
38
60
ENDCHAR

STARTCHAR colon
ENCODING 58
SWIDTH 340 0
DWIDTH 4 0
BBX 2 6 1 0
BITMAP
C0
C0
00
00
C0
C0
ENDCHAR

STARTCHAR semicolon
ENCODING 59
SWIDTH 340 0
DWIDTH 4 0
BBX 2 8 1 -2
BITMAP
C0
C0
00
00
C0
C0
40
80
ENDCHAR

STARTCHAR less
ENCODING 60
SWIDTH 600 0
DWIDTH 8 0
BBX 6 7 1 1
BITMAP
04
1C
70
C0
70
1C
04
ENDCHAR

STARTCHAR equal
ENCODING 61
SWIDTH 600 0
DWIDTH 8 0
BBX 6 3 1 3
BITMAP
FC
00
FC
ENDCHAR

STARTCHAR greater
ENCODING 62
SWIDTH 600 0
DWIDTH 8 0
BBX 6 7 1 1
BITMAP
80
E0
38
0C
38
E0
80
ENDCHAR

STARTCHAR question
ENCODING 63
SWIDTH 660 0
DWIDTH 9 0
BBX 7 9 1 0
BITMAP
7C
CE
46
0E
3C
20
00
30
30
ENDCHAR

STARTCHAR at
ENCODING 64
SWIDTH 820 0
DWIDTH 11 0
BBX 11 12 0 -3
BITMAP
1F80
2040
4020
47A0
8920
9320
B320
BEC0
5320
4040
30C0
0F00
ENDCHAR

STARTCHAR A
ENCODING 65
SWIDTH 720 0
DWIDTH 9 0
BBX 9 9 0 0
BITMAP
0C00
1C00
1600
3600
2600
3F00
6300
4300
E780
ENDCHAR

STARTCHAR B
ENCODING 66
SWIDTH 720 0
DWIDTH 9 0
BBX 8 9 1 0
BITMAP
FE
63
63
63
7E
63
63
63
FE
ENDCHAR

STARTCHAR C
ENCODING 67
SWIDTH 740 0
DWIDTH 9 0
BBX 8 9 1 0
BITMAP
3E
67
C3
C0
C0
C0
C1
63
3E
ENDCHAR

STARTCHAR D
ENCODING 68
SWIDTH 780 0
DWIDTH 10 0
BBX 9 9 1 0
BITMAP
FE00
6300
6180
6180
6180
6180
6180
6300
FE00
ENDCHAR

STARTCHAR E
ENCODING 69
SWIDTH 720 0
DWIDTH 9 0
BBX 8 9 1 0
BITMAP
FE
63
61
64
7C
64
61
63
FE
ENDCHAR

STARTCHAR F
ENCODING 70
SWIDTH 680 0
DWIDTH 9 0
BBX 8 9 1 0
BITMAP
FE
63
61
64
7C
64
60
60
F0
ENDCHAR

STARTCHAR G
ENCODING 71
SWIDTH 780 0
DWIDTH 10 0
BBX 9 9 1 0
BITMAP
3E00
6300
C100
C000
C780
C300
C300
6700
3D00
ENDCHAR

STARTCHAR H
ENCODING 72
SWIDTH 820 0
DWIDTH 11 0
BBX 10 9 1 0
BITMAP
F3C0
6180
6180
6180
7F80
6180
6180
6180
F3C0
ENDCHAR

STARTCHAR I
ENCODING 73
SWIDTH 400 0
DWIDTH 5 0
BBX 4 9 1 0
BITMAP
F0
60
60
60
60
60
60
60
F0
ENDCHAR

STARTCHAR J
ENCODING 74
SWIDTH 640 0
DWIDTH 8 0
BBX 8 9 0 0
BITMAP
0F
06
06
06
06
46
C6
EE
7C
ENDCHAR

STARTCHAR K
ENCODING 75
SWIDTH 800 0
DWIDTH 10 0
BBX 10 9 1 0
BITMAP
F780
6300
6600
6C00
7E00
7700
6300
6380
F7C0
ENDCHAR

STARTCHAR L
ENCODING 76
SWIDTH 640 0
DWIDTH 8 0
BBX 8 9 1 0
BITMAP
F0
60
60
60
60
60
61
63
FE
ENDCHAR

STARTCHAR M
ENCODING 77
SWIDTH 940 0
DWIDTH 12 0
BBX 11 9 1 0
BITMAP
F1E0
71C0
5BC0
5AC0
5AC0
5EC0
4CC0
4CC0
EDE0
ENDCHAR

STARTCHAR N
ENCODING 78
SWIDTH 740 0
DWIDTH 10 0
BBX 9 9 1 0
BITMAP
F380
7100
5900
5900
4D00
4D00
4700
4700
E300
ENDCHAR

STARTCHAR O
ENCODING 79
SWIDTH 800 0
DWIDTH 10 0
BBX 9 9 1 0
BITMAP
3E00
6300
C180
C180
C180
C180
C180
6300
3E00
ENDCHAR

STARTCHAR P
ENCODING 80
SWIDTH 660 0
DWIDTH 9 0
BBX 8 9 1 0
BITMAP
FE
63
63
63
7E
60
60
60
F0
ENDCHAR

STARTCHAR Q
ENCODING 81
SWIDTH 800 0
DWIDTH 10 0
BBX 9 12 1 -3
BITMAP
3E00
6300
C180
C180
C180
C180
C180
6300
3E00
1800
1800
0E00
ENDCHAR

STARTCHAR R
ENCODING 82
SWIDTH 780 0
DWIDTH 10 0
BBX 9 9 1 0
BITMAP
FE00
6300
6300
6300
7E00
6C00
6600
6700
F380
ENDCHAR

STARTCHAR S
ENCODING 83
SWIDTH 660 0
DWIDTH 9 0
BBX 8 9 1 0
BITMAP
7E
C3
C1
F8
7E
0F
83
C3
7E
ENDCHAR

STARTCHAR T
ENCODING 84
SWIDTH 700 0
DWIDTH 9 0
BBX 8 9 1 0
BITMAP
FF
DB
99
18
18
18
18
18
3C
ENDCHAR

STARTCHAR U
ENCODING 85
SWIDTH 740 0
DWIDTH 10 0
BBX 9 9 1 0
BITMAP
F380
6100
6100
6100
6100
6100
6100
7300
3E00
ENDCHAR

STARTCHAR V
ENCODING 86
SWIDTH 720 0
DWIDTH 9 0
BBX 10 9 0 0
BITMAP
F3C0
6180
7100
3300
3200
1A00
1E00
0C00
0C00
ENDCHAR

STARTCHAR W
ENCODING 87
SWIDTH 940 0
DWIDTH 12 0
BBX 13 9 0 0
BITMAP
F778
6630
6220
7760
3740
3540
3DC0
1980
1980
ENDCHAR

STARTCHAR X
ENCODING 88
SWIDTH 780 0
DWIDTH 11 0
BBX 10 9 1 0
BITMAP
FBC0
7180
3B00
1E00
0C00
1E00
3700
6380
F7C0
ENDCHAR

STARTCHAR Y
ENCODING 89
SWIDTH 700 0
DWIDTH 9 0
BBX 10 9 0 0
BITMAP
FBC0
7180
3100
1A00
1E00
0C00
0C00
0C00
1E00
ENDCHAR

STARTCHAR Z
ENCODING 90
SWIDTH 640 0
DWIDTH 9 0
BBX 8 9 1 0
BITMAP
7F
C7
8E
1C
18
38
71
E3
FE
ENDCHAR

STARTCHAR bracketleft
ENCODING 91
SWIDTH 300 0
DWIDTH 4 0
BBX 3 12 1 -3
BITMAP
E0
C0
C0
C0
C0
C0
C0
C0
C0
C0
C0
E0
ENDCHAR

STARTCHAR backslash
ENCODING 92
SWIDTH 600 0
DWIDTH 8 0
BBX 5 12 2 -3
BITMAP
C0
C0
40
60
60
20
30
30
10
18
18
08
ENDCHAR

STARTCHAR bracketright
ENCODING 93
SWIDTH 300 0
DWIDTH 4 0
BBX 3 12 1 -3
BITMAP
E0
60
60
60
60
60
60
60
60
60
60
E0
ENDCHAR

STARTCHAR asciicircum
ENCODING 94
SWIDTH 600 0
DWIDTH 8 0
BBX 6 6 1 3
BITMAP
30
30
78
48
CC
84
ENDCHAR

STARTCHAR underscore
ENCODING 95
SWIDTH 500 0
DWIDTH 7 0
BBX 7 1 0 -2
BITMAP
FE
ENDCHAR

STARTCHAR quoteleft
ENCODING 96
SWIDTH 320 0
DWIDTH 4 0
BBX 2 4 1 5
BITMAP
40
80
C0
C0
ENDCHAR

STARTCHAR a
ENCODING 97
SWIDTH 580 0
DWIDTH 8 0
BBX 7 6 1 0
BITMAP
78
CC
3C
EC
CC
F6
ENDCHAR

STARTCHAR b
ENCODING 98
SWIDTH 600 0
DWIDTH 8 0
BBX 7 9 1 0
BITMAP
20
E0
60
6C
76
66
66
76
6C
ENDCHAR

STARTCHAR c
ENCODING 99
SWIDTH 580 0
DWIDTH 7 0
BBX 6 6 1 0
BITMAP
78
CC
C4
C0
CC
78
ENDCHAR

STARTCHAR d
ENCODING 100
SWIDTH 640 0
DWIDTH 8 0
BBX 7 9 1 0
BITMAP
04
1C
0C
6C
DC
CC
CC
DC
6E
ENDCHAR

STARTCHAR e
ENCODING 101
SWIDTH 580 0
DWIDTH 7 0
BBX 6 6 1 0
BITMAP
78
CC
FC
C0
CC
78
ENDCHAR

STARTCHAR f
ENCODING 102
SWIDTH 380 0
DWIDTH 5 0
BBX 6 9 1 0
BITMAP
38
6C
60
F0
60
60
60
60
F0
ENDCHAR

STARTCHAR g
ENCODING 103
SWIDTH 580 0
DWIDTH 8 0
BBX 7 9 1 -3
BITMAP
7A
CC
CC
78
C0
7C
FE
C6
7C
ENDCHAR

STARTCHAR h
ENCODING 104
SWIDTH 680 0
DWIDTH 9 0
BBX 8 9 1 0
BITMAP
20
E0
60
6C
76
66
66
66
F7
ENDCHAR

STARTCHAR i
ENCODING 105
SWIDTH 360 0
DWIDTH 5 0
BBX 4 9 1 0
BITMAP
60
60
00
20
E0
60
60
60
F0
ENDCHAR

STARTCHAR j
ENCODING 106
SWIDTH 340 0
DWIDTH 5 0
BBX 5 12 -1 -3
BITMAP
18
18
00
08
38
18
18
18
18
18
D8
70
ENDCHAR

STARTCHAR k
ENCODING 107
SWIDTH 660 0
DWIDTH 9 0
BBX 8 9 1 0
BITMAP
20
E0
60
6F
66
6C
76
66
F7
ENDCHAR

STARTCHAR l
ENCODING 108
SWIDTH 340 0
DWIDTH 5 0
BBX 4 9 1 0
BITMAP
20
E0
60
60
60
60
60
60
F0
ENDCHAR

STARTCHAR m
ENCODING 109
SWIDTH 1000 0
DWIDTH 13 0
BBX 12 6 1 0
BITMAP
6CC0
F760
6660
6660
6660
F770
ENDCHAR

STARTCHAR n
ENCODING 110
SWIDTH 680 0
DWIDTH 9 0
BBX 8 6 1 0
BITMAP
6C
F6
66
66
66
F7
ENDCHAR

STARTCHAR o
ENCODING 111
SWIDTH 620 0
DWIDTH 7 0
BBX 6 6 1 0
BITMAP
78
CC
CC
CC
CC
78
ENDCHAR

STARTCHAR p
ENCODING 112
SWIDTH 640 0
DWIDTH 8 0
BBX 7 9 1 -3
BITMAP
6C
F6
66
66
76
6C
60
60
F0
ENDCHAR

STARTCHAR q
ENCODING 113
SWIDTH 620 0
DWIDTH 8 0
BBX 7 9 1 -3
BITMAP
6C
DE
CC
CC
DC
6C
0C
0C
1E
ENDCHAR

STARTCHAR r
ENCODING 114
SWIDTH 460 0
DWIDTH 6 0
BBX 5 6 1 0
BITMAP
68
F8
60
60
60
F0
ENDCHAR

STARTCHAR s
ENCODING 115
SWIDTH 520 0
DWIDTH 7 0
BBX 6 6 1 0
BITMAP
78
CC
F0
3C
CC
78
ENDCHAR

STARTCHAR t
ENCODING 116
SWIDTH 460 0
DWIDTH 6 0
BBX 5 8 1 0
BITMAP
20
60
F8
60
60
60
68
38
ENDCHAR

STARTCHAR u
ENCODING 117
SWIDTH 660 0
DWIDTH 9 0
BBX 8 6 1 0
BITMAP
EE
66
66
66
6E
37
ENDCHAR

STARTCHAR v
ENCODING 118
SWIDTH 600 0
DWIDTH 8 0
BBX 8 6 0 0
BITMAP
F7
62
34
3C
18
18
ENDCHAR

STARTCHAR w
ENCODING 119
SWIDTH 800 0
DWIDTH 10 0
BBX 11 6 0 0
BITMAP
EEE0
6440
6680
2E80
3300
3300
ENDCHAR

STARTCHAR x
ENCODING 120
SWIDTH 600 0
DWIDTH 8 0
BBX 8 6 0 0
BITMAP
E7
76
3C
3C
66
E7
ENDCHAR

STARTCHAR y
ENCODING 121
SWIDTH 620 0
DWIDTH 8 0
BBX 8 9 1 -3
BITMAP
F7
62
76
34
3C
18
18
D0
60
ENDCHAR

STARTCHAR z
ENCODING 122
SWIDTH 560 0
DWIDTH 7 0
BBX 6 6 1 0
BITMAP
7C
D8
B0
34
6C
F8
ENDCHAR

STARTCHAR braceleft
ENCODING 123
SWIDTH 320 0
DWIDTH 4 0
BBX 4 12 0 -3
BITMAP
30
60
60
60
20
C0
40
20
60
60
60
30
ENDCHAR

STARTCHAR bar
ENCODING 124
SWIDTH 600 0
DWIDTH 8 0
BBX 2 13 3 -3
BITMAP
C0
C0
C0
C0
C0
C0
C0
C0
C0
C0
C0
C0
C0
ENDCHAR

STARTCHAR braceright
ENCODING 125
SWIDTH 320 0
DWIDTH 4 0
BBX 4 12 0 -3
BITMAP
C0
60
60
60
40
20
30
40
60
60
60
C0
ENDCHAR

STARTCHAR asciitilde
ENCODING 126
SWIDTH 600 0
DWIDTH 8 0
BBX 6 2 1 3
BITMAP
F4
BC
ENDCHAR

STARTCHAR space
ENCODING 160
SWIDTH 340 0
DWIDTH 5 0
BBX 0 0 0 0
BITMAP
ENDCHAR

STARTCHAR Aogonek
ENCODING 161
SWIDTH 720 0
DWIDTH 9 0
BBX 9 11 0 -2
BITMAP
0C00
1C00
1600
3600
2600
3F00
6300
4300
E780
0200
0380
ENDCHAR

STARTCHAR breve
ENCODING 162
SWIDTH 500 0
DWIDTH 7 0
BBX 6 2 1 7
BITMAP
CC
78
ENDCHAR

STARTCHAR Lslash
ENCODING 163
SWIDTH 640 0
DWIDTH 8 0
BBX 8 9 1 0
BITMAP
F0
60
68
70
60
E0
61
63
FE
ENDCHAR

STARTCHAR currency
ENCODING 164
SWIDTH 600 0
DWIDTH 8 0
BBX 6 6 1 2
BITMAP
B4
CC
84
84
CC
B4
ENDCHAR

STARTCHAR Lcaron
ENCODING 165
SWIDTH 640 0
DWIDTH 8 0
BBX 8 9 1 0
BITMAP
F6
66
62
64
60
60
61
63
FE
ENDCHAR

STARTCHAR Sacute
ENCODING 166
SWIDTH 660 0
DWIDTH 9 0
BBX 8 12 1 0
BITMAP
0C
18
00
7E
C3
C1
F8
7E
0F
83
C3
7E
ENDCHAR

STARTCHAR section
ENCODING 167
SWIDTH 600 0
DWIDTH 8 0
BBX 7 11 1 -2
BITMAP
7E
C6
E0
7C
DE
C6
7C
3E
C6
C6
7C
ENDCHAR

STARTCHAR dieresis
ENCODING 168
SWIDTH 500 0
DWIDTH 7 0
BBX 5 2 1 7
BITMAP
D8
D8
ENDCHAR

STARTCHAR Scaron
ENCODING 169
SWIDTH 660 0
DWIDTH 9 0
BBX 8 12 1 0
BITMAP
36
1C
00
7E
C3
C1
F8
7E
0F
83
C3
7E
ENDCHAR

STARTCHAR Scommaaccent
ENCODING 170
SWIDTH 660 0
DWIDTH 9 0
BBX 8 12 1 -3
BITMAP
7E
C3
C1
F8
7E
0F
83
C3
7E
00
08
18
ENDCHAR

STARTCHAR Tcaron
ENCODING 171
SWIDTH 700 0
DWIDTH 9 0
BBX 8 12 1 0
BITMAP
36
1C
00
FF
DB
99
18
18
18
18
18
3C
ENDCHAR

STARTCHAR Zacute
ENCODING 172
SWIDTH 640 0
DWIDTH 9 0
BBX 8 12 1 0
BITMAP
06
0C
00
7F
C7
8E
1C
18
38
71
E3
FE
ENDCHAR

STARTCHAR hyphen
ENCODING 173
SWIDTH 360 0
DWIDTH 5 0
BBX 3 1 1 3
BITMAP
E0
ENDCHAR

STARTCHAR Zcaron
ENCODING 174
SWIDTH 640 0
DWIDTH 9 0
BBX 8 12 1 0
BITMAP
36
1C
00
7F
C7
8E
1C
18
38
71
E3
FE
ENDCHAR

STARTCHAR Zdotaccent
ENCODING 175
SWIDTH 640 0
DWIDTH 9 0
BBX 8 12 1 0
BITMAP
0C
0C
00
7F
C7
8E
1C
18
38
71
E3
FE
ENDCHAR

STARTCHAR degree
ENCODING 176
SWIDTH 400 0
DWIDTH 5 0
BBX 4 4 1 5
BITMAP
60
90
90
60
ENDCHAR

STARTCHAR aogonek
ENCODING 177
SWIDTH 580 0
DWIDTH 8 0
BBX 7 8 1 -2
BITMAP
78
CC
3C
EC
CC
FE
08
0E
ENDCHAR

STARTCHAR ogonek
ENCODING 178
SWIDTH 320 0
DWIDTH 8 0
BBX 3 2 3 -2
BITMAP
80
E0
ENDCHAR

STARTCHAR lslash
ENCODING 179
SWIDTH 340 0
DWIDTH 5 0
BBX 4 9 1 0
BITMAP
20
E0
60
70
60
E0
60
60
F0
ENDCHAR

STARTCHAR acute
ENCODING 180
SWIDTH 400 0
DWIDTH 5 0
BBX 3 2 1 7
BITMAP
60
C0
ENDCHAR

STARTCHAR lcaron
ENCODING 181
SWIDTH 476 0
DWIDTH 5 0
BBX 5 9 0 0
BITMAP
28
E8
70
60
60
60
60
60
F0
ENDCHAR

STARTCHAR sacute
ENCODING 182
SWIDTH 520 0
DWIDTH 7 0
BBX 6 9 1 0
BITMAP
18
30
00
78
CC
F0
3C
CC
78
ENDCHAR

STARTCHAR caron
ENCODING 183
SWIDTH 500 0
DWIDTH 7 0
BBX 5 2 1 7
BITMAP
D8
70
ENDCHAR

STARTCHAR commaaccent
ENCODING 184
SWIDTH 333 0
DWIDTH 4 0
BBX 2 2 1 -3
BITMAP
40
C0
ENDCHAR

STARTCHAR scaron
ENCODING 185
SWIDTH 520 0
DWIDTH 7 0
BBX 6 9 1 0
BITMAP
6C
38
00
78
CC
F0
3C
CC
78
ENDCHAR

STARTCHAR scommaaccent
ENCODING 186
SWIDTH 520 0
DWIDTH 7 0
BBX 6 9 1 -3
BITMAP
78
CC
F0
3C
CC
78
00
10
30
ENDCHAR

STARTCHAR tcaron
ENCODING 187
SWIDTH 566 0
DWIDTH 6 0
BBX 6 9 1 0
BITMAP
04
24
68
F8
60
60
60
68
38
ENDCHAR

STARTCHAR zacute
ENCODING 188
SWIDTH 560 0
DWIDTH 7 0
BBX 6 9 1 0
BITMAP
18
30
00
7C
D8
B0
34
6C
F8
ENDCHAR

STARTCHAR hungarumlaut
ENCODING 189
SWIDTH 440 0
DWIDTH 6 0
BBX 7 2 0 7
BITMAP
66
CC
ENDCHAR

STARTCHAR zcaron
ENCODING 190
SWIDTH 560 0
DWIDTH 7 0
BBX 6 9 1 0
BITMAP
6C
38
00
7C
D8
B0
34
6C
F8
ENDCHAR

STARTCHAR zdotaccent
ENCODING 191
SWIDTH 560 0
DWIDTH 7 0
BBX 6 9 1 0
BITMAP
30
30
00
7C
D8
B0
34
6C
F8
ENDCHAR

STARTCHAR Racute
ENCODING 192
SWIDTH 780 0
DWIDTH 10 0
BBX 9 12 1 0
BITMAP
0C00
1800
0000
FE00
6300
6300
6300
7E00
6C00
6600
6700
F380
ENDCHAR

STARTCHAR Aacute
ENCODING 193
SWIDTH 720 0
DWIDTH 9 0
BBX 9 12 0 0
BITMAP
0600
0C00
0000
0C00
1C00
1600
3600
2600
3F00
6300
4300
E780
ENDCHAR

STARTCHAR Acircumflex
ENCODING 194
SWIDTH 720 0
DWIDTH 9 0
BBX 9 12 0 0
BITMAP
0E00
1B00
0000
0C00
1C00
1600
3600
2600
3F00
6300
4300
E780
ENDCHAR

STARTCHAR Abreve
ENCODING 195
SWIDTH 720 0
DWIDTH 9 0
BBX 9 12 0 0
BITMAP
3300
1E00
0000
0C00
1C00
1600
3600
2600
3F00
6300
4300
E780
ENDCHAR

STARTCHAR Adieresis
ENCODING 196
SWIDTH 720 0
DWIDTH 9 0
BBX 9 12 0 0
BITMAP
3600
3600
0000
0C00
1C00
1600
3600
2600
3F00
6300
4300
E780
ENDCHAR

STARTCHAR Lacute
ENCODING 197
SWIDTH 640 0
DWIDTH 8 0
BBX 8 12 1 0
BITMAP
18
30
00
F0
60
60
60
60
60
61
63
FE
ENDCHAR

STARTCHAR Cacute
ENCODING 198
SWIDTH 740 0
DWIDTH 9 0
BBX 8 12 1 0
BITMAP
0C
18
00
3E
67
C3
C0
C0
C0
C1
63
3E
ENDCHAR

STARTCHAR Ccedilla
ENCODING 199
SWIDTH 740 0
DWIDTH 9 0
BBX 8 12 1 -3
BITMAP
3E
67
C3
C0
C0
C0
C1
63
3E
08
04
18
ENDCHAR

STARTCHAR Ccaron
ENCODING 200
SWIDTH 740 0
DWIDTH 9 0
BBX 8 12 1 0
BITMAP
36
1C
00
3E
67
C3
C0
C0
C0
C1
63
3E
ENDCHAR

STARTCHAR Eacute
ENCODING 201
SWIDTH 720 0
DWIDTH 9 0
BBX 9 12 0 0
BITMAP
0600
0C00
0000
FF00
6180
6080
6400
7C00
6400
6080
6180
FF00
ENDCHAR

STARTCHAR Eogonek
ENCODING 202
SWIDTH 720 0
DWIDTH 9 0
BBX 9 11 0 -2
BITMAP
FF00
6180
6080
6400
7C00
6400
6080
6180
FF00
0200
0380
ENDCHAR

STARTCHAR Edieresis
ENCODING 203
SWIDTH 720 0
DWIDTH 9 0
BBX 9 12 0 0
BITMAP
3600
3600
0000
FF00
6180
6080
6400
7C00
6400
6080
6180
FF00
ENDCHAR

STARTCHAR Ecaron
ENCODING 204
SWIDTH 720 0
DWIDTH 9 0
BBX 9 12 0 0
BITMAP
3600
1C00
0000
FF00
6180
6080
6400
7C00
6400
6080
6180
FF00
ENDCHAR

STARTCHAR Iacute
ENCODING 205
SWIDTH 400 0
DWIDTH 5 0
BBX 4 12 1 0
BITMAP
30
60
00
F0
60
60
60
60
60
60
60
F0
ENDCHAR

STARTCHAR Icircumflex
ENCODING 206
SWIDTH 400 0
DWIDTH 5 0
BBX 5 12 1 0
BITMAP
70
D8
00
F0
60
60
60
60
60
60
60
F0
ENDCHAR

STARTCHAR Dcaron
ENCODING 207
SWIDTH 780 0
DWIDTH 10 0
BBX 9 12 1 0
BITMAP
3600
1C00
0000
FE00
6300
6180
6180
6180
6180
6180
6300
FE00
ENDCHAR

STARTCHAR Dcroat
ENCODING 208
SWIDTH 780 0
DWIDTH 10 0
BBX 9 9 1 0
BITMAP
FE00
6300
6180
6180
F980
6180
6180
6300
FE00
ENDCHAR

STARTCHAR Nacute
ENCODING 209
SWIDTH 740 0
DWIDTH 10 0
BBX 9 12 1 0
BITMAP
0C00
1800
0000
F380
7100
5900
5900
4D00
4D00
4700
4700
E300
ENDCHAR

STARTCHAR Ncaron
ENCODING 210
SWIDTH 740 0
DWIDTH 10 0
BBX 9 12 1 0
BITMAP
3600
1C00
0000
F380
7100
5900
5900
4D00
4D00
4700
4700
E300
ENDCHAR

STARTCHAR Oacute
ENCODING 211
SWIDTH 800 0
DWIDTH 10 0
BBX 9 12 1 0
BITMAP
0600
0C00
0000
3E00
6300
C180
C180
C180
C180
C180
6300
3E00
ENDCHAR

STARTCHAR Ocircumflex
ENCODING 212
SWIDTH 800 0
DWIDTH 10 0
BBX 9 12 1 0
BITMAP
1C00
3600
0000
3E00
6300
C180
C180
C180
C180
C180
6300
3E00
ENDCHAR

STARTCHAR Ohungarumlaut
ENCODING 213
SWIDTH 800 0
DWIDTH 10 0
BBX 9 12 1 0
BITMAP
1980
3300
0000
3E00
6300
C180
C180
C180
C180
C180
6300
3E00
ENDCHAR

STARTCHAR Odieresis
ENCODING 214
SWIDTH 800 0
DWIDTH 10 0
BBX 9 12 1 0
BITMAP
3600
3600
0000
3E00
6300
C180
C180
C180
C180
C180
6300
3E00
ENDCHAR

STARTCHAR multiply
ENCODING 215
SWIDTH 600 0
DWIDTH 8 0
BBX 6 5 1 2
BITMAP
CC
78
30
78
CC
ENDCHAR

STARTCHAR Rcaron
ENCODING 216
SWIDTH 780 0
DWIDTH 10 0
BBX 9 12 1 0
BITMAP
3600
1C00
0000
FE00
6300
6300
6300
7E00
6C00
6600
6700
F380
ENDCHAR

STARTCHAR Uring
ENCODING 217
SWIDTH 740 0
DWIDTH 10 0
BBX 9 13 1 0
BITMAP
0800
1400
0800
0000
F380
6100
6100
6100
6100
6100
6100
7300
3E00
ENDCHAR

STARTCHAR Uacute
ENCODING 218
SWIDTH 740 0
DWIDTH 10 0
BBX 9 12 1 0
BITMAP
0600
0C00
0000
F380
6100
6100
6100
6100
6100
6100
7300
3E00
ENDCHAR

STARTCHAR Uhungarumlaut
ENCODING 219
SWIDTH 740 0
DWIDTH 10 0
BBX 9 12 1 0
BITMAP
3300
6600
0000
F380
6100
6100
6100
6100
6100
6100
7300
3E00
ENDCHAR

STARTCHAR Udieresis
ENCODING 220
SWIDTH 740 0
DWIDTH 10 0
BBX 9 12 1 0
BITMAP
3300
3300
0000
F380
6100
6100
6100
6100
6100
6100
7300
3E00
ENDCHAR

STARTCHAR Yacute
ENCODING 221
SWIDTH 700 0
DWIDTH 9 0
BBX 10 12 0 0
BITMAP
0600
0C00
0000
FBC0
7180
3300
1A00
1E00
0C00
0C00
0C00
1E00
ENDCHAR

STARTCHAR Tcommaaccent
ENCODING 222
SWIDTH 700 0
DWIDTH 9 0
BBX 8 12 1 -3
BITMAP
FF
DB
99
18
18
18
18
18
3C
00
08
18
ENDCHAR

STARTCHAR germandbls
ENCODING 223
SWIDTH 660 0
DWIDTH 9 0
BBX 8 9 1 0
BITMAP
3C
66
6E
F8
6C
6E
67
7B
EE
ENDCHAR

STARTCHAR racute
ENCODING 224
SWIDTH 460 0
DWIDTH 6 0
BBX 5 9 1 0
BITMAP
18
30
00
E8
78
60
60
60
F0
ENDCHAR

STARTCHAR aacute
ENCODING 225
SWIDTH 580 0
DWIDTH 8 0
BBX 7 9 1 0
BITMAP
18
30
00
78
CC
3C
EC
CC
F6
ENDCHAR

STARTCHAR acircumflex
ENCODING 226
SWIDTH 580 0
DWIDTH 8 0
BBX 7 9 1 0
BITMAP
38
6C
00
78
CC
3C
EC
CC
F6
ENDCHAR

STARTCHAR abreve
ENCODING 227
SWIDTH 580 0
DWIDTH 8 0
BBX 7 9 1 0
BITMAP
CC
78
00
78
CC
3C
EC
CC
F6
ENDCHAR

STARTCHAR adieresis
ENCODING 228
SWIDTH 580 0
DWIDTH 8 0
BBX 7 9 1 0
BITMAP
6C
6C
00
78
CC
3C
EC
CC
F6
ENDCHAR

STARTCHAR lacute
ENCODING 229
SWIDTH 340 0
DWIDTH 5 0
BBX 4 12 1 0
BITMAP
30
60
00
20
E0
60
60
60
60
60
60
F0
ENDCHAR

STARTCHAR cacute
ENCODING 230
SWIDTH 580 0
DWIDTH 7 0
BBX 6 9 1 0
BITMAP
18
30
00
78
CC
C4
C0
CC
78
ENDCHAR

STARTCHAR ccedilla
ENCODING 231
SWIDTH 580 0
DWIDTH 7 0
BBX 6 9 1 -3
BITMAP
78
CC
C4
C0
CC
78
10
08
30
ENDCHAR

STARTCHAR ccaron
ENCODING 232
SWIDTH 580 0
DWIDTH 7 0
BBX 6 9 1 0
BITMAP
6C
38
00
78
CC
C4
C0
CC
78
ENDCHAR

STARTCHAR eacute
ENCODING 233
SWIDTH 580 0
DWIDTH 7 0
BBX 6 9 1 0
BITMAP
18
30
00
78
CC
FC
C0
CC
78
ENDCHAR

STARTCHAR eogonek
ENCODING 234
SWIDTH 580 0
DWIDTH 7 0
BBX 6 8 1 -2
BITMAP
78
CC
FC
C0
CC
78
10
1C
ENDCHAR

STARTCHAR edieresis
ENCODING 235
SWIDTH 580 0
DWIDTH 7 0
BBX 6 9 1 0
BITMAP
6C
6C
00
78
CC
FC
C0
CC
78
ENDCHAR

STARTCHAR ecaron
ENCODING 236
SWIDTH 580 0
DWIDTH 7 0
BBX 6 9 1 0
BITMAP
6C
38
00
78
CC
FC
C0
CC
78
ENDCHAR

STARTCHAR iacute
ENCODING 237
SWIDTH 360 0
DWIDTH 5 0
BBX 4 9 1 0
BITMAP
30
60
00
20
E0
60
60
60
F0
ENDCHAR

STARTCHAR icircumflex
ENCODING 238
SWIDTH 360 0
DWIDTH 5 0
BBX 5 9 1 0
BITMAP
70
D8
00
20
E0
60
60
60
F0
ENDCHAR

STARTCHAR dcaron
ENCODING 239
SWIDTH 758 0
DWIDTH 8 0
BBX 8 9 1 0
BITMAP
05
1D
0E
6C
DC
CC
CC
DC
6E
ENDCHAR

STARTCHAR dcroat
ENCODING 240
SWIDTH 640 0
DWIDTH 8 0
BBX 7 9 1 0
BITMAP
04
1E
0C
6C
DC
CC
CC
DC
6E
ENDCHAR

STARTCHAR nacute
ENCODING 241
SWIDTH 680 0
DWIDTH 9 0
BBX 8 9 1 0
BITMAP
0C
18
00
6C
F6
66
66
66
F7
ENDCHAR

STARTCHAR ncaron
ENCODING 242
SWIDTH 680 0
DWIDTH 9 0
BBX 8 9 1 0
BITMAP
6C
38
00
6C
F6
66
66
66
F7
ENDCHAR

STARTCHAR oacute
ENCODING 243
SWIDTH 620 0
DWIDTH 7 0
BBX 6 9 1 0
BITMAP
18
30
00
78
CC
CC
CC
CC
78
ENDCHAR

STARTCHAR ocircumflex
ENCODING 244
SWIDTH 620 0
DWIDTH 7 0
BBX 6 9 1 0
BITMAP
38
6C
00
78
CC
CC
CC
CC
78
ENDCHAR

STARTCHAR ohungarumlaut
ENCODING 245
SWIDTH 620 0
DWIDTH 7 0
BBX 7 9 1 0
BITMAP
36
6C
00
78
CC
CC
CC
CC
78
ENDCHAR

STARTCHAR odieresis
ENCODING 246
SWIDTH 620 0
DWIDTH 7 0
BBX 6 9 1 0
BITMAP
CC
CC
00
78
CC
CC
CC
CC
78
ENDCHAR

STARTCHAR divide
ENCODING 247
SWIDTH 600 0
DWIDTH 8 0
BBX 6 5 1 2
BITMAP
30
00
FC
00
30
ENDCHAR

STARTCHAR rcaron
ENCODING 248
SWIDTH 460 0
DWIDTH 6 0
BBX 5 9 1 0
BITMAP
D8
70
00
E8
78
60
60
60
F0
ENDCHAR

STARTCHAR uring
ENCODING 249
SWIDTH 660 0
DWIDTH 9 0
BBX 8 10 1 0
BITMAP
10
28
10
00
EE
66
66
66
6E
37
ENDCHAR

STARTCHAR uacute
ENCODING 250
SWIDTH 660 0
DWIDTH 9 0
BBX 8 9 1 0
BITMAP
0C
18
00
EE
66
66
66
6E
37
ENDCHAR

STARTCHAR uhungarumlaut
ENCODING 251
SWIDTH 660 0
DWIDTH 9 0
BBX 8 9 0 0
BITMAP
33
66
00
EE
66
66
66
6E
37
ENDCHAR

STARTCHAR udieresis
ENCODING 252
SWIDTH 660 0
DWIDTH 9 0
BBX 8 9 1 0
BITMAP
66
66
00
EE
66
66
66
6E
37
ENDCHAR

STARTCHAR yacute
ENCODING 253
SWIDTH 620 0
DWIDTH 8 0
BBX 8 12 1 -3
BITMAP
0C
18
00
F7
66
76
34
3C
18
18
D0
60
ENDCHAR

STARTCHAR tcommaaccent
ENCODING 254
SWIDTH 460 0
DWIDTH 6 0
BBX 5 11 1 -3
BITMAP
20
60
F8
60
60
60
68
38
00
10
30
ENDCHAR

STARTCHAR dotaccent
ENCODING 255
SWIDTH 320 0
DWIDTH 4 0
BBX 2 2 1 7
BITMAP
C0
C0
ENDCHAR
ENDFONT
